<?xml version="1.0" standalone="no"?><!DOCTYPE svg PUBLIC "-//W3C//DTD SVG 1.1//EN" "http://www.w3.org/Graphics/SVG/1.1/DTD/svg11.dtd"><svg t="1743154968437" class="icon" viewBox="0 0 1408 1024" version="1.1" xmlns="http://www.w3.org/2000/svg" p-id="10023" xmlns:xlink="http://www.w3.org/1999/xlink" width="176" height="128"><path d="M576 0H640v64h-64z" fill="#000000" p-id="10024"></path><path d="M576 64H640V128h-64z" fill="#E0B6FF" p-id="10025"></path><path d="M1024 192h64V256H1024zM128 768h64v64H128zM577.882353 960h64V1024h-64z" fill="#000000" p-id="10026"></path><path d="M576 896H640v64h-64z" fill="#7000C3" p-id="10027"></path><path d="M576 832H640V896h-64z" fill="#B652FF" p-id="10028"></path><path d="M448 64H512V128h-64zM384 128h64v64H384z" fill="#000000" p-id="10029"></path><path d="M448 128H512v64h-64zM512 128h64v64H512z" fill="#E0B6FF" p-id="10030"></path><path d="M576 128H640v64h-64zM640 128h64v64H640z" fill="#CA82FF" p-id="10031"></path><path d="M704 128H768v64h-64zM768 128h64v64H768z" fill="#9DCDF4" p-id="10032"></path><path d="M832 128H896v64h-64zM896 128h64v64H896z" fill="#CA82FF" p-id="10033"></path><path d="M320 192H384V256h-64z" fill="#000000" p-id="10034"></path><path d="M384 192h64V256H384z" fill="#E0B6FF" p-id="10035"></path><path d="M448 192H512V256h-64zM512 192h64V256H512z" fill="#CA82FF" p-id="10036"></path><path d="M576 192H640V256h-64z" fill="#ED91DC" p-id="10037"></path><path d="M640 192h64V256H640zM704 192H768V256h-64z" fill="#9DCDF4" p-id="10038"></path><path d="M768 192h64V256H768zM832 192H896V256h-64zM896 192h64V256H896z" fill="#B652FF" p-id="10039"></path><path d="M960 192H1024V256h-64z" fill="#EA6BD2" p-id="10040"></path><path d="M256 256h64v64H256z" fill="#000000" p-id="10041"></path><path d="M320 256H384v64h-64z" fill="#E0B6FF" p-id="10042"></path><path d="M384 256h64v64H384z" fill="#CA82FF" p-id="10043"></path><path d="M448 256H512v64h-64zM512 256h64v64H512z" fill="#ED91DC" p-id="10044"></path><path d="M576 256H640v64h-64zM640 256h64v64H640zM704 256H768v64h-64z" fill="#6BB0EA" p-id="10045"></path><path d="M768 256h64v64H768zM832 256H896v64h-64z" fill="#B652FF" p-id="10046"></path><path d="M896 256h64v64H896z" fill="#EA6BD2" p-id="10047"></path><path d="M960 256H1024v64h-64zM1024 256h64v64H1024z" fill="#B652FF" p-id="10048"></path><path d="M1088 256H1152v64h-64z" fill="#000000" p-id="10049"></path><path d="M1152 256h64v64H1152z" fill="#FFDE00" p-id="10050"></path><path d="M1216 256H1280v64h-64z" fill="#EDA900" p-id="10051"></path><path d="M1088 640H1152v64h-64zM1152 512h64v64H1152zM1344 320H1408V384h-64z" fill="#000000" p-id="10052"></path><path d="M1280 320h64V384H1280z" fill="#EDA900" p-id="10053"></path><path d="M1280 256h64v64H1280zM256 320h64V384H256z" fill="#000000" p-id="10054"></path><path d="M320 320H384V384h-64z" fill="#CA82FF" p-id="10055"></path><path d="M384 320h64V384H384z" fill="#ED91DC" p-id="10056"></path><path d="M448 320H512V384h-64zM512 320h64V384H512z" fill="#EA6BD2" p-id="10057"></path><path d="M576 320H640V384h-64z" fill="#6BB0EA" p-id="10058"></path><path d="M640 320h64V384H640zM704 320H768V384h-64zM768 320h64V384H768z" fill="#B652FF" p-id="10059"></path><path d="M832 320H896V384h-64z" fill="#ED91DC" p-id="10060"></path><path d="M896 320h64V384H896z" fill="#EA6BD2" p-id="10061"></path><path d="M960 320H1024V384h-64zM1024 320h64V384H1024z" fill="#B652FF" p-id="10062"></path><path d="M1088 320H1152V384h-64z" fill="#6BB0EA" p-id="10063"></path><path d="M1152 320h64V384H1152z" fill="#000000" p-id="10064"></path><path d="M1216 320H1280V384h-64z" fill="#FFDE00" p-id="10065"></path><path d="M1088 704H1152V768h-64zM1152 576h64V640H1152zM1344 384H1408v64h-64z" fill="#000000" p-id="10066"></path><path d="M1280 384h64v64H1280z" fill="#EDA900" p-id="10067"></path><path d="M192 384H256v64h-64z" fill="#000000" p-id="10068"></path><path d="M256 384h64v64H256z" fill="#CA82FF" p-id="10069"></path><path d="M320 384H384v64h-64zM384 384h64v64H384z" fill="#ED91DC" p-id="10070"></path><path d="M448 384H512v64h-64z" fill="#EA6BD2" p-id="10071"></path><path d="M512 384h64v64H512z" fill="#6BB0EA" p-id="10072"></path><path d="M576 384H640v64h-64zM640 384h64v64H640zM704 384H768v64h-64z" fill="#B652FF" p-id="10073"></path><path d="M768 384h64v64H768z" fill="#ED91DC" p-id="10074"></path><path d="M832 384H896v64h-64z" fill="#EA6BD2" p-id="10075"></path><path d="M896 384h64v64H896z" fill="#B652FF" p-id="10076"></path><path d="M960 384H1024v64h-64z" fill="#6BB0EA" p-id="10077"></path><path d="M1024 384h64v64H1024zM1088 384H1152v64h-64z" fill="#000000" p-id="10078"></path><path d="M1152 384h64v64H1152zM1216 384H1280v64h-64z" fill="#FFDE00" p-id="10079"></path><path d="M128 448h64V512H128zM192 448H256V512h-64z" fill="#000000" p-id="10080"></path><path d="M256 448h64V512H256z" fill="#CA82FF" p-id="10081"></path><path d="M320 448H384V512h-64z" fill="#EA6BD2" p-id="10082"></path><path d="M384 448h64V512H384z" fill="#9DCDF4" p-id="10083"></path><path d="M448 448H512V512h-64zM512 448h64V512H512zM576 448H640V512h-64zM640 448h64V512H640z" fill="#B652FF" p-id="10084"></path><path d="M704 448H768V512h-64zM768 448h64V512H768z" fill="#EA6BD2" p-id="10085"></path><path d="M832 448H896V512h-64zM896 448h64V512H896zM960 448H1024V512h-64z" fill="#000000" p-id="10086"></path><path d="M1024 448h64V512H1024zM1088 448H1152V512h-64z" fill="#FFDE00" p-id="10087"></path><path d="M1152 448h64V512H1152z" fill="#EDA900" p-id="10088"></path><path d="M64 512H128v64H64z" fill="#000000" p-id="10089"></path><path d="M128 512h64v64H128z" fill="#FFDE00" p-id="10090"></path><path d="M192 512H256v64h-64z" fill="#000000" p-id="10091"></path><path d="M256 512h64v64H256z" fill="#ED91DC" p-id="10092"></path><path d="M320 512H384v64h-64z" fill="#B652FF" p-id="10093"></path><path d="M384 512h64v64H384z" fill="#9DCDF4" p-id="10094"></path><path d="M448 512H512v64h-64z" fill="#B652FF" p-id="10095"></path><path d="M512 512h64v64H512zM576 512H640v64h-64z" fill="#EA6BD2" p-id="10096"></path><path d="M640 512h64v64H640zM704 512H768v64h-64zM768 512h64v64H768z" fill="#000000" p-id="10097"></path><path d="M832 512H896v64h-64z" fill="#FFDE00" p-id="10098"></path><path d="M896 512h64v64H896zM960 512H1024v64h-64zM1024 512h64v64H1024z" fill="#EDA900" p-id="10099"></path><path d="M1088 512H1152v64h-64zM0 576h64V640H0z" fill="#000000" p-id="10100"></path><path d="M64 576H128V640H64zM128 576h64V640H128z" fill="#FFDE00" p-id="10101"></path><path d="M192 576H256V640h-64z" fill="#000000" p-id="10102"></path><path d="M256 576h64V640H256z" fill="#B652FF" p-id="10103"></path><path d="M320 576H384V640h-64z" fill="#6BB0EA" p-id="10104"></path><path d="M384 576h64V640H384z" fill="#B652FF" p-id="10105"></path><path d="M448 576H512V640h-64zM512 576h64V640H512zM576 576H640V640h-64z" fill="#000000" p-id="10106"></path><path d="M640 576h64V640H640zM704 576H768V640h-64z" fill="#FFDE00" p-id="10107"></path><path d="M768 576h64V640H768zM832 576H896V640h-64z" fill="#EDA900" p-id="10108"></path><path d="M896 576h64V640H896zM960 576H1024V640h-64zM1024 576h64V640H1024z" fill="#000000" p-id="10109"></path><path d="M1088 576H1152V640h-64z" fill="#7000C3" p-id="10110"></path><path d="M0 640h64v64H0z" fill="#000000" p-id="10111"></path><path d="M64 640H128v64H64zM128 640h64v64H128zM192 640H256v64h-64z" fill="#FFDE00" p-id="10112"></path><path d="M256 640h64v64H256zM320 640H384v64h-64zM384 640h64v64H384z" fill="#000000" p-id="10113"></path><path d="M448 640H512v64h-64zM512 640h64v64H512z" fill="#EDA900" p-id="10114"></path><path d="M576 640H640v64h-64z" fill="#FFDE00" p-id="10115"></path><path d="M640 640h64v64H640z" fill="#488ECA" p-id="10116"></path><path d="M704 640H768v64h-64zM768 640h64v64H768zM832 640H896v64h-64z" fill="#000000" p-id="10117"></path><path d="M896 640h64v64H896z" fill="#C65BB2" p-id="10118"></path><path d="M960 640H1024v64h-64z" fill="#488ECA" p-id="10119"></path><path d="M1024 640h64v64H1024z" fill="#7000C3" p-id="10120"></path><path d="M64 704H128V768H64z" fill="#000000" p-id="10121"></path><path d="M128 704h64V768H128z" fill="#FFDE00" p-id="10122"></path><path d="M192 704H256V768h-64zM256 704h64V768H256zM320 704H384V768h-64zM384 704h64V768H384z" fill="#EDA900" p-id="10123"></path><path d="M384 768h64v64H384z" fill="#000000" p-id="10124"></path><path d="M448 704H512V768h-64z" fill="#EDA900" p-id="10125"></path><path d="M448 768H512v64h-64zM512 704h64V768H512z" fill="#000000" p-id="10126"></path><path d="M512 768h64v64H512z" fill="#C65BB2" p-id="10127"></path><path d="M576 704H640V768h-64z" fill="#000000" p-id="10128"></path><path d="M576 768H640v64h-64z" fill="#C65BB2" p-id="10129"></path><path d="M640 704h64V768H640z" fill="#000000" p-id="10130"></path><path d="M640 768h64v64H640z" fill="#488ECA" p-id="10131"></path><path d="M704 704H768V768h-64z" fill="#B652FF" p-id="10132"></path><path d="M704 768H768v64h-64zM768 704h64V768H768zM768 768h64v64H768z" fill="#488ECA" p-id="10133"></path><path d="M832 704H896V768h-64z" fill="#C65BB2" p-id="10134"></path><path d="M832 768H896v64h-64z" fill="#7000C3" p-id="10135"></path><path d="M896 704h64V768H896z" fill="#B652FF" p-id="10136"></path><path d="M960 704H1024V768h-64zM1024 704h64V768H1024zM896 768h64v64H896zM960 768H1024v64h-64z" fill="#7000C3" p-id="10137"></path><path d="M640 0h64v64H640z" fill="#000000" p-id="10138"></path><path d="M640 64h64V128H640z" fill="#E0B6FF" p-id="10139"></path><path d="M1088 192H1152V256h-64zM192 768H256v64h-64zM641.882353 960h64V1024h-64z" fill="#000000" p-id="10140"></path><path d="M640 896h64v64H640z" fill="#7000C3" p-id="10141"></path><path d="M640 832h64V896H640z" fill="#C65BB2" p-id="10142"></path><path d="M512 64h64V128H512zM704 0H768v64h-64z" fill="#000000" p-id="10143"></path><path d="M704 64H768V128h-64z" fill="#CA82FF" p-id="10144"></path><path d="M832 64H896V128h-64zM1152 192h64V256H1152zM1216 448H1280V512h-64zM256 768h64v64H256zM705.882353 960h64V1024h-64z" fill="#000000" p-id="10145"></path><path d="M704 896H768v64h-64z" fill="#7000C3" p-id="10146"></path><path d="M704 832H768V896h-64z" fill="#488ECA" p-id="10147"></path><path d="M832 896H896v64h-64z" fill="#000000" p-id="10148"></path><path d="M832 832H896V896h-64z" fill="#7000C3" p-id="10149"></path><path d="M448 896H512v64h-64z" fill="#000000" p-id="10150"></path><path d="M448 832H512V896h-64z" fill="#7000C3" p-id="10151"></path><path d="M768 0h64v64H768z" fill="#000000" p-id="10152"></path><path d="M768 64h64V128H768z" fill="#CA82FF" p-id="10153"></path><path d="M896 64h64V128H896zM960 128H1024v64h-64zM1216 192H1280V256h-64zM1280 448h64V512H1280zM320 768H384v64h-64zM769.882353 960h64V1024h-64z" fill="#000000" p-id="10154"></path><path d="M768 896h64v64H768zM768 832h64V896H768z" fill="#7000C3" p-id="10155"></path><path d="M896 896h64v64H896z" fill="#000000" p-id="10156"></path><path d="M896 832h64V896H896z" fill="#7000C3" p-id="10157"></path><path d="M960 832H1024V896h-64zM1024 768h64v64H1024zM512 896h64v64H512z" fill="#000000" p-id="10158"></path><path d="M512 832h64V896H512z" fill="#B652FF" p-id="10159"></path><path d="M384 832h64V896H384z" fill="#000000" p-id="10160"></path></svg>