<?xml version="1.0" standalone="no"?><!DOCTYPE svg PUBLIC "-//W3C//DTD SVG 1.1//EN" "http://www.w3.org/Graphics/SVG/1.1/DTD/svg11.dtd"><svg t="1743154935042" class="icon" viewBox="0 0 1024 1024" version="1.1" xmlns="http://www.w3.org/2000/svg" p-id="7334" xmlns:xlink="http://www.w3.org/1999/xlink" width="128" height="128"><path d="M512 512m-211.18922555-211.18922555a298.666667 298.666667 0 1 0 422.3784511 422.3784511 298.666667 298.666667 0 1 0-422.3784511-422.3784511Z" fill="#394fb5" p-id="7335"></path><path d="M723.18922555 300.81077445l4.73667286 4.82718253C839.90144172 422.53119319 841.66638095 604.71207015 730.73169812 715.64675298c-20.03280675 20.03280675-42.37360933 36.36980182-66.26816239 49.07132547l-1.0559466 0.57322743C566.98462331 787.34549545 449.66900888 751.36790171 361.15055358 662.84944642c-88.5184553-88.5184553-124.51113303-205.84915514-102.44185946-302.25703555l0.55814272-1.07103131A278.528 278.528 0 0 1 308.35324702 293.26830188C420.82659421 180.79495469 606.55243363 184.17398253 723.18922555 300.81077445z" fill="#55469d" p-id="7336"></path><path d="M723.18922555 300.81077445c88.89557868 88.89557868 112.00571414 217.93219511 68.16886471 324.06986695L791.07147584 625.13708499c-79.15070466 79.15070466-231.10135251 55.5125966-339.41125427-52.79730656s-131.94801052-260.26055031-52.79730656-339.41125427l0.271529-0.271529C505.25702973 188.80506102 634.29364687 211.91519577 723.18922555 300.81077445z" fill="#744894" p-id="7337"></path><path d="M512 240.47099602a192 106.666667 45 1 0 271.52900398 271.52900398 192 106.666667 45 1 0-271.52900398-271.52900398Z" fill="#924b8f" p-id="7338"></path><path d="M632.67955756 270.64088559a85.333333 42.666667 45 1 0 120.67955685 120.67955685 85.333333 42.666667 45 1 0-120.67955685-120.67955685Z" fill="#9d86c9" p-id="7339"></path><path d="M828.78383797 858.95372683c-83.31414939 83.31414939-299.43615114 2.2627417-482.71822952-181.01933528S81.73212378 278.53031141 165.04627317 195.21616203c50.74575362-50.74575362 150.77402146-40.50307643 262.6590558 16.68394903-16.74428858 6.06414776-33.11145307 13.80272437-48.87522 23.23081455C320.14967398 210.93467413 272.60192816 208.34006389 248.01346859 232.92852346c-54.15495158 54.15495158 23.51742826 219.62170938 173.47686342 369.58114453s315.42619295 227.631815 369.58114453 173.47686342c24.6337144-24.6337144 21.99384932-72.31722473-2.35325207-131.1183388a286.656 286.656 0 0 0 23.26098538-48.90539084C869.25674427 707.96851591 879.57484642 808.16271838 828.78383797 858.95372683z" fill="#9c86c9" p-id="7340"></path><path d="M440.33142837 218.52240154A279.594667 279.594667 0 0 0 386.04071157 238.20825432C324.07175912 211.17603372 273.61261922 207.32937283 248.01346859 232.92852346c-27.16798511 27.16798511-21.14909219 82.393968 10.52929091 149.61248119 0.6637378 23.14030488 14.17984775 43.14294151 35.0121568 62.85896512 30.01903965 47.30638623 69.90363381 97.62976164 117.60222885 146.62566144L421.49033201 602.50966799c-174.95518823-174.95518823-269.50762115-364.06005479-211.18922555-422.37845039 9.1867313-9.1867313 21.97876461-14.94917993 37.74253155-17.46836592 53.5213832-2.44376104 120.81532206 17.36277155 192.28779036 55.85954986z m365.01040559 364.85955709c38.6023734 71.6082328 58.46924552 139.02285004 55.99531436 192.66491303-2.5342707 15.68834198-8.29671933 28.48037529-17.46836592 37.65202188-58.31839631 58.31839631-247.42326216-36.23403732-422.37845039-211.18922555 51.93746472 51.93746472 105.76054705 95.20108531 156.14426199 127.33201816 20.3646753 21.87317024 41.04613443 36.03793328 65.06136658 36.2189519C709.37141577 797.22613397 764.06942536 802.98858259 791.07147654 775.98653141c25.64440617-25.64440617 21.72232032-76.2694807-5.44566549-138.37419695 8.55316363-17.60413042 15.10002985-35.76640357 19.71602291-54.23037583z" fill="#9c86c9" p-id="7341"></path><path d="M828.78383797 858.95372683c-83.31414939 83.31414939-299.43615114 2.2627417-482.71822952-181.01933528S81.73212378 278.53031141 165.04627317 195.21616203c1.29730548-1.29730548 2.60969566-2.54935541 3.98242468-3.77123593C96.07790545 273.38634505 180.68936032 482.38825315 361.15055358 662.84944642c180.44610785 180.44610785 389.46310137 265.07264813 471.40452032 192.12185573-1.22188052 1.37273044-2.47393116 2.68511991-3.77123593 3.98242468z" fill="#9c86c9" p-id="7342"></path><path d="M793.59066183 773.3164962L791.07147654 775.98653141c25.64440617-25.64440617 21.72232032-76.23930987-5.43058078-138.35911224a266.730667 266.730667 0 0 0 4.61599377-9.9862336c27.21323994 62.57235071 30.80345724 115.06795814 3.34885772 145.69039605zM386.04071157 238.20825432C323.98124946 211.17603372 273.5824498 207.35954225 248.01346859 232.92852346l2.67003521-2.51918529c30.56209836-27.4244294 82.92194059-23.87946764 145.32835667 3.1980085-3.34885772 1.44815469-6.66754601 2.98681904-10.00131831 4.57073824z" fill="#9c86c9" p-id="7343"></path></svg>